<svg version="1" xmlns="http://www.w3.org/2000/svg" width="933.333" height="933.333" viewBox="0 0 700.000000 700.000000"><path d="M160 101C83.7 123.4 28.8 173.8 9.2 239.5c-1.1 3.8-2.3 8.1-2.6 9.5-.3 1.4-1 4.3-1.5 6.5s-1.2 6-1.6 8.5c-.3 2.5-.8 5.6-1 7-1.9 10.8-2.6 36.1-1.3 47.4.4 3.9 1.5 10.4 2.4 14.3.8 4 1.5 7.4 1.4 7.5-.3.9 7.7 21.4 10.7 27.3 3.2 6.3 10.9 19.2 12.3 20.5.3.3 2.2 2.7 4.3 5.5 4.3 5.7 15.7 17.1 23.2 23.1 5.2 4.3 17 12.4 17.9 12.4.3 0 2.8 1.3 5.6 3 13.8 8.1 37.1 15.9 58.5 19.5 12.2 2 37.4 2.6 53.5 1.2 6.9-.6 27.5-3.9 31.5-5 .6-.2 2.6-.7 4.5-1.1 11.1-2.5 41-12.9 53.8-18.7 3.5-1.6 6.6-2.9 6.8-2.9.3 0 3-1.1 6-2.5s5.7-2.5 6-2.5c.3 0 2-.7 3.7-1.5 1.8-.8 5.6-2.3 8.6-3.5 4.9-1.9 5.3-1.9 4.6-.3-.4 1-2.2 5.8-4.1 10.8-1.8 4.9-5.5 14.8-8.2 22-25.9 68.7-25.1 65.9-19.2 72 1.8 1.9 4.7 3.7 6.4 4.1 1.7.4 27.5.7 57.3.6H403l3.6-2.7c5.6-4.3 7-10.2 4-16.7-.9-1.9-3.1-4.3-4.9-5.3-3-1.8-5.6-1.9-46.7-2-27.8 0-43.6-.4-43.7-1-.4-1.4-.4-1.3 15.9-45 8.3-22 15.4-41.2 16-42.7.9-2.6 1.1-2.7 7.3-2.3 10.3.8 23.5 4.4 38.5 10.5 3 1.2 6.4 2.6 7.5 3 1.1.4 3.6 1.5 5.5 2.3 47.2 20.2 71.6 27.4 104.5 30.5 8.8.9 40 .8 44-.1 1.1-.3 4.5-.8 7.5-1.2 19-2.5 43.9-10.9 61-20.6 13.9-7.8 21.8-13.7 32.6-24.4 24.6-24.2 39.5-54.5 43.2-88.2.9-7.5.7-30.2-.2-38.3-2.5-22.7-6-37.9-12.3-54-13.2-33.8-32.8-59.4-65.3-85.4-9.9-7.9-35.7-22.7-50-28.6-11.3-4.7-29.7-11-35.2-12-.4-.1-2.9-.8-5.4-1.6-9.9-3-17-1-20.4 5.6-4.2 8.3 1 17.7 10.8 19.5 3.7.6 25.8 7.2 28.7 8.5 1.1.5 6.5 2.8 12 5.1 5.5 2.4 12.6 5.8 15.8 7.6 3.3 1.8 6.1 3.3 6.3 3.3 1.4 0 27.6 18.1 27 18.7-.1.2-3.6-1-7.6-2.7-7.3-3-19.3-6.8-24-7.7-1.4-.2-4.1-.8-6-1.3-1.9-.5-5.1-1.1-7-1.4-9.4-1.3-12.8-1.7-16.5-2.1-5.3-.6-32.9-.6-38 0-2.2.2-6.2.7-9 1-12 1.2-33.9 6-46 10-13.7 4.5-38.6 14.3-61 24-16.8 7.2-31.9 11.2-44.3 11.6-14.2.4-25.8-2.9-59.7-17.1-32-13.4-46.4-18.5-64-22.8-13.4-3.2-22.1-4.9-31-5.8-3.3-.3-6.9-.8-8-1-2.4-.5-32.5-.4-37.5.1-13.9 1.4-23.3 3-35 6.2-6.8 1.8-16.1 5-21.8 7.4-2.4 1.1-4.6 1.9-4.9 1.9-.3 0 2.4-2.3 6.1-5 20.5-15.6 50.6-29.9 77.9-37 6-1.6 11.9-3.6 13.1-4.4 5.1-3.3 6.7-12.8 3.1-18.2-4.2-6.4-11.2-6.8-29.5-1.4zm41.5 142.5c26.3 3.6 48.6 13.1 63.3 26.9 23 21.8 20.8 47.7-5.9 69-8.9 7-30 16.4-43.1 19.2-12.8 2.7-22.6 3.8-34.3 3.8-40.5 0-72.5-14.7-83.8-38.5-4.2-8.9-5.4-14.1-5.1-23.4.6-25.2 20.4-45.4 52.8-54.1 16.1-4.2 37.7-5.3 56.1-2.9zm344.5 1c12.6 2.6 18.1 4.5 28 9.3 7.7 3.8 11 6.2 17.6 12.8 10.6 10.5 15.4 20.6 15.8 33.3.7 21-9.9 37.8-31.4 49.9-6.1 3.4-21.5 8.8-27.6 9.7-2.1.3-4.5.8-5.2 1-2.7 1-17.2 1.9-26.5 1.8-38.1-.5-73.9-15.2-89.1-36.7-13-18.2-10.8-36.6 6.3-53.7 14.5-14.5 36.6-24.4 63.2-28.3 12-1.8 38.6-1.3 48.9.9z"/><path d="M210.5 283.2c-7.6 1.6-14.2 9-15 16.7-.8 8.5 3.3 15.8 11.2 19.7 13.3 6.6 27.5-2.5 27.7-17.7.1-12.3-11.3-21.3-23.9-18.7zM553.4 283.3c-12.5 2.4-18.7 17.7-12 29.2 2.9 4.8 10.7 9.5 15.9 9.5 11.5 0 20-8.6 20-20.2.1-12.5-11.1-21.1-23.9-18.5zM499 527.8c-1.4.9-5.4 4.1-8.8 6.9-11.1 9.3-28.2 18.3-47.4 24.9-8 2.7-32.6 8.9-39.8 9.9-2.4.4-4.7.8-5 1-.3.2-3.7.6-7.5 1-3.9.4-7.2.9-7.5 1-.3.2-3.7.6-7.5 1-3.9.3-8.6.8-10.5 1-9.5 1.2-27.9 1.9-51 2-16.5 0-26.4.5-28.1 1.2-5.8 2.6-8.6 12.3-5 18 2.7 4.2 5.7 6.1 11.1 6.8 5.3.8 49.1.8 57 .1 3-.3 9.4-.8 14.2-1.1 4.9-.3 9.6-.8 10.5-.9 1-.2 4.9-.7 8.6-1.1 3.7-.3 7.8-.8 9-1.1 1.2-.2 4.2-.7 6.7-1 2.5-.3 5.4-.8 6.5-1 1.1-.2 3.6-.7 5.5-1 9.4-1.6 33.1-7.9 43.5-11.5 21.3-7.3 39.6-17.1 53.8-28.6 8.6-7.1 10.9-10.3 11.1-15.7.2-10-11.4-17.1-19.4-11.8z"/></svg>