<svg height='300px' width='300px' fill='#000' xmlns="http://www.w3.org/2000/svg"
     xmlns:xlink="http://www.w3.org/1999/xlink" version="1.1" x="0px" y="0px" viewBox="0 0 100 100"
     enable-background="new 0 0 100 100" xml:space="preserve">
    <g>
        <path d="M99.931,42.171c-0.31-12.234-6.975-19.27-12.59-23.038c-6.143-4.122-12.231-5.249-12.487-5.295 c-1.036-0.185-2.022,0.502-2.209,1.536c-0.188,1.035,0.5,2.025,1.534,2.214c0.055,0.01,5.66,1.065,11.146,4.78   c0.766,0.519,1.488,1.063,2.174,1.629c-3.358-1.576-7.277-2.469-11.614-2.469c-0.316,0-0.632,0.007-0.945,0.016   C62.983,21.873,56.112,28.326,50,28.326s-12.983-6.453-24.939-6.782c-0.313-0.009-0.629-0.016-0.945-0.016   c-4.319,0-8.225,0.887-11.574,2.452c0.679-0.56,1.395-1.098,2.151-1.611c5.47-3.705,11.059-4.764,11.146-4.78   c1.035-0.187,1.723-1.176,1.537-2.211c-0.187-1.036-1.176-1.724-2.212-1.539c-0.256,0.046-6.345,1.173-12.486,5.295   C7.167,22.83,0.647,29.675,0.11,41.488c-0.043,0.558-0.065,1.123-0.065,1.691c0,11.958,9.774,21.651,24.07,21.651   c0.316,0,0.632-0.007,0.945-0.017c9.018-0.247,15.143-3.977,20.23-5.796l-4.964,13.303c-0.218,0.585-0.136,1.239,0.221,1.753   c0.355,0.513,0.94,0.819,1.565,0.819h14.891c1.051,0,1.904-0.854,1.904-1.906c0-1.052-0.854-1.905-1.904-1.905H44.856l4.864-13.038   c0.094-0.004,0.188-0.01,0.279-0.01c6.112,0,12.983,6.452,24.938,6.78c0.313,0.01,0.629,0.017,0.945,0.017   c14.296,0,24.071-9.693,24.071-21.651C99.955,42.842,99.946,42.505,99.931,42.171z M25.824,51.786   c-7.437,0-12.631-3.539-12.631-8.606c0-5.067,5.194-8.606,12.631-8.606c7.747,0,14.293,3.942,14.293,8.606   C40.117,47.845,33.571,51.786,25.824,51.786z M74.176,51.786c-7.748,0-14.293-3.941-14.293-8.606c0-4.665,6.545-8.606,14.293-8.606   c7.437,0,12.63,3.54,12.63,8.606C86.806,48.247,81.612,51.786,74.176,51.786z"/>
        <circle cx="30.716" cy="43.179" r="2.812"/>
        <circle cx="79.715" cy="43.179" r="2.812"/>
        <path d="M70.863,75.676c-8.202,7.951-28.709,6.617-28.955,6.6c-1.05-0.074-1.961,0.716-2.035,1.766   c-0.075,1.05,0.715,1.961,1.765,2.036c0.228,0.015,1.728,0.114,4.001,0.114c6.87,0,20.79-0.909,27.876-7.78   c0.755-0.733,0.773-1.939,0.042-2.694C72.823,74.961,71.618,74.942,70.863,75.676z"/>
    </g>
</svg>
